# xmcd
#
# Track frame offsets: 
#        150
#        16101
#        36218
#        68589
#        85680
#        97829
#        116502
#        135147
#        158802
#        172552
#        196736
#
# Disc length: 2852 seconds
#
# Revision: 1
# Processed by: cddbd v1.5.2PL0 Copyright (c) Steve Scherf et al.
# Submitted via: ExactAudioCopy v0.95b4
#
DISCID=6a0b220b
DTITLE=Mississippi Fred McDowell - Live at the Gaslight - Set One
DYEAR=1971
DGENRE=Blues
TTITLE0=Shake 'Em On Down
TTITLE1=Fred's Worried Blues
TTITLE2=Jesus Is On The Mainline
TTITLE3=Mercy
TTITLE4=When The Saints Go Marchin' In
TTITLE5=Someday Baby
TTITLE6=The Lovin' Blues
TTITLE7=White Lightnin'
TTITLE8=You Got To Move
TTITLE9=Louise
TTITLE10=Baby Please Don't Go
EXTD=YEAR: 1971
EXTT0=
EXTT1=
EXTT2=
EXTT3=
EXTT4=
EXTT5=
EXTT6=
EXTT7=
EXTT8=
EXTT9=
EXTT10=
PLAYORDER=
